<svg xmlns="http://www.w3.org/2000/svg" viewBox="0 0 600 300">
  <defs>
    <radialGradient id="bg" cx="30%" cy="20%" r="80%">
      <stop class="c-bg2-stop" offset="0%"/>
      <stop class="c-bg-stop" offset="100%"/>
    </radialGradient>
  </defs>
  <rect width="600" height="300" fill="url(#bg)"/>

  <svg x="0" y="30" width="600" height="191" viewBox="2004 193 1620 515"
       preserveAspectRatio="xMidYMax meet">
    <path class="c-alt-fill" d="M3529 547c-37-28-80-56-123-74q-18-6-33-15c-37-24-89-65-128-88-10-5-30 6-42 14q-29 20-63 33c-11 4-25 9-37 6s-23-13-34-20c-22-15-38-27-55-46-15-15-29-36-48-44-15-5-34-6-47-15-31-22-65-72-94-84-32-11-45 35-67 50-12 9-29 9-43 19q-13 13-21 30-7 18-21 31c-12 9-29 6-39 17s-14 30-28 37c-12 6-28-4-40 1-27 12-35 51-65 61-43 15-81-33-110-57-17-17-38-16-55-1-27 23-58 45-79 74-17 22-29 51-52 68q-9 6-19 8c-16 3-33-6-46 2-17 11-25 32-39 45l-66 63c-21 18 2 14 16 14q37-3 73 0c18 1 38 6 55-1q11-5 21-13c7-5 14-11 23-9q9 1 18 7c20 11 46 29 62 35 9 3 4-16 5-22 1-23 15-13 28-20 7-4-12-29-19-43-22-41-15-51 29-27 12 5 23 15 36 17 6-1-8-19-17-35s-23-42-5-56q9-6 13-15c4-10-17-49 4-51q10 1 17 12c20 23 29 51 54 66q38 21 63 56c32 44 88 50 134 68 12 5 28 12 18-2-7-12-44-40-32-44 55 0 104 44 148 75 5 3 12 8 17 7 3-1 1-12 4-19 11-15 40 5 53 11 14 8 27 17 27 9-10-31-26-68-37-98-6-15-6-16 3-12l124 55 6 3q4 1 2-1c-20-21-41-48-65-65-33-24-78-40-115-65-6-5-14-12-14-18 0-10 13-25 24-28 18-4 46 6 66 8 8 1 26 5 22-7-11-27-47-62-62-86q-6-9-5-14 3-7 9-10 7-6 5-16c-2-15-10-45-13-60q-2-8 1-11 5-1 14 9c20 18 38 46 55 63 15 16 36 19 53 30q15 10 26 25c14 14 31 18 45 33 7 9 17 19 21 28q2 7-6 2c-14-6-26-24-40-30-9-3-6 16-1 30q12 30 32 56c22 29 17-15 36-18 7-1 16 5 22 10 44 34 85 72 137 90 10 3 30 12 23-7-6-16-21-39-24-55 5-17 55 27 61 34 36 33 61 82 104 106q6 4 5 1c-23-33-115-141-139-176q-1-10 2-24c2-12-6-44 11-39q26 15 48 36c19 17 27 47 39 71 11 22 30 44 49 65 12 11 26 32 40 36q3-1-1-7l-8-14c-14-20-30-52-33-66-4-11 7-3 12 0 13 9 34 29 47 35q4 1 0-8l-3-11c-8-25 6-26 19-13 24 20 127 121 137 87-5-20-58-67-84-88z"/>
    <path class="c-alts-fill" d="M2561 660c-29-32-68-72-110-83-8-1 0 8 2 11 28 34 60 73 102 87 14 5 19-2 7-14zm622-56a776 776 0 0 0-104-64c0 2 6 7 8 9 40 37 83 74 133 97 40 18-29-37-36-41z"/>
  </svg>

  <g transform="translate(200 88)">
    <rect class="c-bg-fill c-fg-stroke" width="200" height="125" rx="14" stroke-width="12"/>
    <path class="c-fg-stroke" d="M12 12 L100 80 L188 12" fill="none" stroke-width="12" stroke-linecap="round" stroke-linejoin="round"/>
  </g>
</svg>
