<svg xmlns="http://www.w3.org/2000/svg" viewBox="0 0 600 300"><defs><radialGradient id="bg" cx="40%" cy="30%" r="80%"><stop class="c-bg2-stop" offset="0%"/><stop class="c-bg-stop" offset="100%"/></radialGradient></defs><path fill="url(#bg)" d="M0 0h600v300H0z"/><path fill="none" stroke-linecap="round" stroke-linejoin="round" stroke-width="12" d="M117 93V48h268v45" class="c-alt-stroke"/><g transform="translate(217 93)"><rect width="336" height="160" stroke-width="12" class="c-bg-fill c-alt-stroke" rx="14"/><g class="c-alt-fill" opacity=".9"><rect width="28" height="28" x="22" y="22" rx="4"/><rect width="28" height="28" x="66" y="22" rx="4"/><rect width="28" height="28" x="110" y="22" rx="4"/><rect width="28" height="28" x="154" y="22" rx="4"/><rect width="28" height="28" x="198" y="22" rx="4"/><rect width="28" height="28" x="242" y="22" rx="4"/><rect width="28" height="28" x="22" y="66" rx="4"/><rect width="28" height="28" x="66" y="66" rx="4"/><rect width="28" height="28" x="110" y="66" rx="4"/><rect width="28" height="28" x="154" y="66" rx="4"/><rect width="28" height="28" x="198" y="66" rx="4"/><path d="M286 22h28v72h-72V66h44Z"/><rect width="140" height="28" x="98" y="110" rx="4"/></g></g><g transform="translate(117 93)"><path d="M-70 118Q-70 0 0 0t70 118v42l-18-18-18 18-16-18-18 18-18-18-16 18-18-18-18 18Z" class="c-fg-fill" opacity=".95"/><ellipse cx="-25" cy="60" class="c-bg-fill" rx="13" ry="17"/><ellipse cx="25" cy="60" class="c-bg-fill" rx="13" ry="17"/><ellipse cy="104" class="c-bg-fill" rx="11" ry="14"/></g></svg>